<svg xmlns="http://www.w3.org/2000/svg" xmlns:xlink="http://www.w3.org/1999/xlink" xmlns:svgjs="http://svgjs.dev/svgjs" version="1.1" width="600" height="400" preserveAspectRatio="none" viewBox="0 0 600 400"><script xmlns=""/><g mask="url(&quot;#SvgjsMask1037&quot;)" fill="none"><rect width="600" height="400" x="0" y="0" fill="rgba(189, 216, 242, 1)"/><use xlink:href="#SvgjsPath1038" x="30" y="30" stroke="rgba(173, 202, 230, 1)" strokeWidth="3"/><use xlink:href="#SvgjsPath1039" x="30" y="90" stroke="rgba(173, 202, 230, 1)"/><use xlink:href="#SvgjsPath1040" x="30" y="150" stroke="rgba(173, 202, 230, 1)"/><use xlink:href="#SvgjsPath1039" x="30" y="210" stroke="rgba(173, 202, 230, 1)"/><use xlink:href="#SvgjsPath1041" x="30" y="270" stroke="rgba(173, 202, 230, 1)"/><use xlink:href="#SvgjsPath1041" x="30" y="330" stroke="rgba(173, 202, 230, 1)"/><use xlink:href="#SvgjsPath1038" x="30" y="390" stroke="rgba(173, 202, 230, 1)" strokeWidth="3"/><use xlink:href="#SvgjsPath1041" x="90" y="30" stroke="rgba(173, 202, 230, 1)"/><use xlink:href="#SvgjsPath1041" x="90" y="90" stroke="rgba(173, 202, 230, 1)"/><use xlink:href="#SvgjsPath1042" x="90" y="150" stroke="rgba(173, 202, 230, 1)"/><use xlink:href="#SvgjsPath1043" x="90" y="210" stroke="rgba(173, 202, 230, 1)"/><use xlink:href="#SvgjsPath1039" x="90" y="270" stroke="rgba(173, 202, 230, 1)"/><use xlink:href="#SvgjsPath1038" x="90" y="330" stroke="rgba(173, 202, 230, 1)" strokeWidth="3"/><use xlink:href="#SvgjsPath1040" x="90" y="390" stroke="rgba(173, 202, 230, 1)"/><use xlink:href="#SvgjsPath1041" x="150" y="30" stroke="rgba(173, 202, 230, 1)"/><use xlink:href="#SvgjsPath1042" x="150" y="90" stroke="rgba(173, 202, 230, 1)"/><use xlink:href="#SvgjsPath1041" x="150" y="150" stroke="rgba(173, 202, 230, 1)"/><use xlink:href="#SvgjsPath1043" x="150" y="210" stroke="rgba(173, 202, 230, 1)"/><use xlink:href="#SvgjsPath1039" x="150" y="270" stroke="rgba(173, 202, 230, 1)"/><use xlink:href="#SvgjsPath1039" x="150" y="330" stroke="rgba(173, 202, 230, 1)"/><use xlink:href="#SvgjsPath1041" x="150" y="390" stroke="rgba(173, 202, 230, 1)"/><use xlink:href="#SvgjsPath1042" x="210" y="30" stroke="rgba(173, 202, 230, 1)"/><use xlink:href="#SvgjsPath1043" x="210" y="90" stroke="rgba(173, 202, 230, 1)"/><use xlink:href="#SvgjsPath1041" x="210" y="150" stroke="rgba(173, 202, 230, 1)"/><use xlink:href="#SvgjsPath1043" x="210" y="210" stroke="rgba(173, 202, 230, 1)"/><use xlink:href="#SvgjsPath1039" x="210" y="270" stroke="rgba(173, 202, 230, 1)"/><use xlink:href="#SvgjsPath1043" x="210" y="330" stroke="rgba(173, 202, 230, 1)"/><use xlink:href="#SvgjsPath1041" x="210" y="390" stroke="rgba(173, 202, 230, 1)"/><use xlink:href="#SvgjsPath1041" x="270" y="30" stroke="rgba(173, 202, 230, 1)"/><use xlink:href="#SvgjsPath1041" x="270" y="90" stroke="rgba(173, 202, 230, 1)"/><use xlink:href="#SvgjsPath1042" x="270" y="150" stroke="rgba(173, 202, 230, 1)"/><use xlink:href="#SvgjsPath1043" x="270" y="210" stroke="rgba(173, 202, 230, 1)"/><use xlink:href="#SvgjsPath1043" x="270" y="270" stroke="rgba(173, 202, 230, 1)"/><use xlink:href="#SvgjsPath1042" x="270" y="330" stroke="rgba(173, 202, 230, 1)"/><use xlink:href="#SvgjsPath1042" x="270" y="390" stroke="rgba(173, 202, 230, 1)"/><use xlink:href="#SvgjsPath1041" x="330" y="30" stroke="rgba(173, 202, 230, 1)"/><use xlink:href="#SvgjsPath1042" x="330" y="90" stroke="rgba(173, 202, 230, 1)"/><use xlink:href="#SvgjsPath1038" x="330" y="150" stroke="rgba(173, 202, 230, 1)" strokeWidth="3"/><use xlink:href="#SvgjsPath1043" x="330" y="210" stroke="rgba(173, 202, 230, 1)"/><use xlink:href="#SvgjsPath1043" x="330" y="270" stroke="rgba(173, 202, 230, 1)"/><use xlink:href="#SvgjsPath1041" x="330" y="330" stroke="rgba(173, 202, 230, 1)"/><use xlink:href="#SvgjsPath1043" x="330" y="390" stroke="rgba(173, 202, 230, 1)"/><use xlink:href="#SvgjsPath1040" x="390" y="30" stroke="rgba(173, 202, 230, 1)"/><use xlink:href="#SvgjsPath1043" x="390" y="90" stroke="rgba(173, 202, 230, 1)"/><use xlink:href="#SvgjsPath1041" x="390" y="150" stroke="rgba(173, 202, 230, 1)"/><use xlink:href="#SvgjsPath1043" x="390" y="210" stroke="rgba(173, 202, 230, 1)"/><use xlink:href="#SvgjsPath1041" x="390" y="270" stroke="rgba(173, 202, 230, 1)"/><use xlink:href="#SvgjsPath1041" x="390" y="330" stroke="rgba(173, 202, 230, 1)"/><use xlink:href="#SvgjsPath1038" x="390" y="390" stroke="rgba(173, 202, 230, 1)" strokeWidth="3"/><use xlink:href="#SvgjsPath1040" x="450" y="30" stroke="rgba(173, 202, 230, 1)"/><use xlink:href="#SvgjsPath1039" x="450" y="90" stroke="rgba(173, 202, 230, 1)"/><use xlink:href="#SvgjsPath1038" x="450" y="150" stroke="rgba(173, 202, 230, 1)" strokeWidth="3"/><use xlink:href="#SvgjsPath1043" x="450" y="210" stroke="rgba(173, 202, 230, 1)"/><use xlink:href="#SvgjsPath1043" x="450" y="270" stroke="rgba(173, 202, 230, 1)"/><use xlink:href="#SvgjsPath1040" x="450" y="330" stroke="rgba(173, 202, 230, 1)"/><use xlink:href="#SvgjsPath1041" x="450" y="390" stroke="rgba(173, 202, 230, 1)"/><use xlink:href="#SvgjsPath1041" x="510" y="30" stroke="rgba(173, 202, 230, 1)"/><use xlink:href="#SvgjsPath1043" x="510" y="90" stroke="rgba(173, 202, 230, 1)"/><use xlink:href="#SvgjsPath1043" x="510" y="150" stroke="rgba(173, 202, 230, 1)"/><use xlink:href="#SvgjsPath1043" x="510" y="210" stroke="rgba(173, 202, 230, 1)"/><use xlink:href="#SvgjsPath1043" x="510" y="270" stroke="rgba(173, 202, 230, 1)"/><use xlink:href="#SvgjsPath1043" x="510" y="330" stroke="rgba(173, 202, 230, 1)"/><use xlink:href="#SvgjsPath1039" x="510" y="390" stroke="rgba(173, 202, 230, 1)"/><use xlink:href="#SvgjsPath1041" x="570" y="30" stroke="rgba(173, 202, 230, 1)"/><use xlink:href="#SvgjsPath1041" x="570" y="90" stroke="rgba(173, 202, 230, 1)"/><use xlink:href="#SvgjsPath1038" x="570" y="150" stroke="rgba(173, 202, 230, 1)" strokeWidth="3"/><use xlink:href="#SvgjsPath1041" x="570" y="210" stroke="rgba(173, 202, 230, 1)"/><use xlink:href="#SvgjsPath1041" x="570" y="270" stroke="rgba(173, 202, 230, 1)"/><use xlink:href="#SvgjsPath1038" x="570" y="330" stroke="rgba(173, 202, 230, 1)" strokeWidth="3"/><use xlink:href="#SvgjsPath1041" x="570" y="390" stroke="rgba(173, 202, 230, 1)"/></g><defs><mask id="SvgjsMask1037"><rect width="600" height="400" fill="#ffffff"/></mask><path d="M-1 0 a1 1 0 1 0 2 0 a1 1 0 1 0 -2 0z" id="SvgjsPath1040"/><path d="M-3 0 a3 3 0 1 0 6 0 a3 3 0 1 0 -6 0z" id="SvgjsPath1039"/><path d="M-5 0 a5 5 0 1 0 10 0 a5 5 0 1 0 -10 0z" id="SvgjsPath1043"/><path d="M2 -2 L-2 2z" id="SvgjsPath1042"/><path d="M6 -6 L-6 6z" id="SvgjsPath1041"/><path d="M30 -30 L-30 30z" id="SvgjsPath1038"/></defs><script xmlns=""/></svg>